{
	"patcher" : 	{
		"fileversion" : 1,
		"appversion" : 		{
			"major" : 8,
			"minor" : 6,
			"revision" : 0,
			"architecture" : "x64",
			"modernui" : 1
		}
,
		"classnamespace" : "box",
		"rect" : [ 83.0, 128.0, 1282.0, 830.0 ],
		"bglocked" : 0,
		"openinpresentation" : 1,
		"default_fontsize" : 12.0,
		"default_fontface" : 0,
		"default_fontname" : "Arial",
		"gridonopen" : 1,
		"gridsize" : [ 15.0, 15.0 ],
		"gridsnaponopen" : 1,
		"objectsnaponopen" : 1,
		"statusbarvisible" : 2,
		"toolbarvisible" : 1,
		"lefttoolbarpinned" : 0,
		"toptoolbarpinned" : 0,
		"righttoolbarpinned" : 0,
		"bottomtoolbarpinned" : 0,
		"toolbars_unpinned_last_save" : 0,
		"tallnewobj" : 0,
		"boxanimatetime" : 200,
		"enablehscroll" : 1,
		"enablevscroll" : 1,
		"devicewidth" : 0.0,
		"description" : "",
		"digest" : "",
		"tags" : "",
		"style" : "",
		"subpatcher_template" : "",
		"assistshowspatchername" : 0,
		"boxes" : [ 			{
				"box" : 				{
					"hidden" : 1,
					"id" : "obj-43",
					"maxclass" : "newobj",
					"numinlets" : 2,
					"numoutlets" : 1,
					"outlettype" : [ "float" ],
					"patching_rect" : [ 1682.944443689452328, 586.0, 40.0, 22.0 ],
					"text" : "* 100."
				}

			}
, 			{
				"box" : 				{
					"hidden" : 1,
					"id" : "obj-44",
					"maxclass" : "newobj",
					"numinlets" : 2,
					"numoutlets" : 1,
					"outlettype" : [ "float" ],
					"patching_rect" : [ 1634.944443689452328, 586.0, 40.0, 22.0 ],
					"text" : "* 100."
				}

			}
, 			{
				"box" : 				{
					"hidden" : 1,
					"id" : "obj-45",
					"maxclass" : "newobj",
					"numinlets" : 2,
					"numoutlets" : 1,
					"outlettype" : [ "float" ],
					"patching_rect" : [ 1586.944443689452328, 586.0, 40.0, 22.0 ],
					"text" : "* 100."
				}

			}
, 			{
				"box" : 				{
					"hidden" : 1,
					"id" : "obj-46",
					"maxclass" : "newobj",
					"numinlets" : 2,
					"numoutlets" : 1,
					"outlettype" : [ "float" ],
					"patching_rect" : [ 1538.944443689452328, 586.0, 40.0, 22.0 ],
					"text" : "* 100."
				}

			}
, 			{
				"box" : 				{
					"hidden" : 1,
					"id" : "obj-47",
					"maxclass" : "newobj",
					"numinlets" : 2,
					"numoutlets" : 1,
					"outlettype" : [ "float" ],
					"patching_rect" : [ 1346.944443689452328, 586.0, 40.0, 22.0 ],
					"text" : "* 100."
				}

			}
, 			{
				"box" : 				{
					"hidden" : 1,
					"id" : "obj-48",
					"maxclass" : "newobj",
					"numinlets" : 2,
					"numoutlets" : 1,
					"outlettype" : [ "float" ],
					"patching_rect" : [ 1490.944443689452328, 586.0, 40.0, 22.0 ],
					"text" : "* 100."
				}

			}
, 			{
				"box" : 				{
					"hidden" : 1,
					"id" : "obj-49",
					"maxclass" : "newobj",
					"numinlets" : 2,
					"numoutlets" : 1,
					"outlettype" : [ "float" ],
					"patching_rect" : [ 1442.944443689452328, 586.0, 40.0, 22.0 ],
					"text" : "* 100."
				}

			}
, 			{
				"box" : 				{
					"hidden" : 1,
					"id" : "obj-25",
					"maxclass" : "newobj",
					"numinlets" : 2,
					"numoutlets" : 1,
					"outlettype" : [ "float" ],
					"patching_rect" : [ 1161.444443689452328, 594.0, 40.0, 22.0 ],
					"text" : "* 100."
				}

			}
, 			{
				"box" : 				{
					"hidden" : 1,
					"id" : "obj-34",
					"maxclass" : "newobj",
					"numinlets" : 2,
					"numoutlets" : 1,
					"outlettype" : [ "float" ],
					"patching_rect" : [ 1113.444443689452328, 594.0, 40.0, 22.0 ],
					"text" : "* 100."
				}

			}
, 			{
				"box" : 				{
					"hidden" : 1,
					"id" : "obj-36",
					"maxclass" : "newobj",
					"numinlets" : 2,
					"numoutlets" : 1,
					"outlettype" : [ "float" ],
					"patching_rect" : [ 1065.444443689452328, 594.0, 40.0, 22.0 ],
					"text" : "* 100."
				}

			}
, 			{
				"box" : 				{
					"hidden" : 1,
					"id" : "obj-37",
					"maxclass" : "newobj",
					"numinlets" : 2,
					"numoutlets" : 1,
					"outlettype" : [ "float" ],
					"patching_rect" : [ 1017.444443689452328, 594.0, 40.0, 22.0 ],
					"text" : "* 100."
				}

			}
, 			{
				"box" : 				{
					"hidden" : 1,
					"id" : "obj-39",
					"maxclass" : "newobj",
					"numinlets" : 2,
					"numoutlets" : 1,
					"outlettype" : [ "float" ],
					"patching_rect" : [ 825.444443689452328, 594.0, 40.0, 22.0 ],
					"text" : "* 100."
				}

			}
, 			{
				"box" : 				{
					"hidden" : 1,
					"id" : "obj-40",
					"maxclass" : "newobj",
					"numinlets" : 2,
					"numoutlets" : 1,
					"outlettype" : [ "float" ],
					"patching_rect" : [ 969.444443689452328, 594.0, 40.0, 22.0 ],
					"text" : "* 100."
				}

			}
, 			{
				"box" : 				{
					"hidden" : 1,
					"id" : "obj-42",
					"maxclass" : "newobj",
					"numinlets" : 2,
					"numoutlets" : 1,
					"outlettype" : [ "float" ],
					"patching_rect" : [ 921.444443689452328, 594.0, 40.0, 22.0 ],
					"text" : "* 100."
				}

			}
, 			{
				"box" : 				{
					"hidden" : 1,
					"id" : "obj-17",
					"maxclass" : "newobj",
					"numinlets" : 2,
					"numoutlets" : 1,
					"outlettype" : [ "float" ],
					"patching_rect" : [ 606.0, 478.0, 40.0, 22.0 ],
					"text" : "* 100."
				}

			}
, 			{
				"box" : 				{
					"hidden" : 1,
					"id" : "obj-14",
					"maxclass" : "newobj",
					"numinlets" : 2,
					"numoutlets" : 1,
					"outlettype" : [ "float" ],
					"patching_rect" : [ 558.0, 478.0, 40.0, 22.0 ],
					"text" : "* 100."
				}

			}
, 			{
				"box" : 				{
					"hidden" : 1,
					"id" : "obj-23",
					"maxclass" : "newobj",
					"numinlets" : 2,
					"numoutlets" : 1,
					"outlettype" : [ "float" ],
					"patching_rect" : [ 510.0, 478.0, 40.0, 22.0 ],
					"text" : "* 100."
				}

			}
, 			{
				"box" : 				{
					"hidden" : 1,
					"id" : "obj-98",
					"maxclass" : "newobj",
					"numinlets" : 2,
					"numoutlets" : 1,
					"outlettype" : [ "float" ],
					"patching_rect" : [ 462.0, 478.0, 40.0, 22.0 ],
					"text" : "* 100."
				}

			}
, 			{
				"box" : 				{
					"hidden" : 1,
					"id" : "obj-97",
					"maxclass" : "newobj",
					"numinlets" : 2,
					"numoutlets" : 1,
					"outlettype" : [ "float" ],
					"patching_rect" : [ 270.0, 478.0, 40.0, 22.0 ],
					"text" : "* 100."
				}

			}
, 			{
				"box" : 				{
					"hidden" : 1,
					"id" : "obj-96",
					"maxclass" : "newobj",
					"numinlets" : 2,
					"numoutlets" : 1,
					"outlettype" : [ "float" ],
					"patching_rect" : [ 414.0, 478.0, 40.0, 22.0 ],
					"text" : "* 100."
				}

			}
, 			{
				"box" : 				{
					"hidden" : 1,
					"id" : "obj-95",
					"maxclass" : "newobj",
					"numinlets" : 2,
					"numoutlets" : 1,
					"outlettype" : [ "float" ],
					"patching_rect" : [ 366.0, 478.0, 40.0, 22.0 ],
					"text" : "* 100."
				}

			}
, 			{
				"box" : 				{
					"id" : "obj-139",
					"maxclass" : "live.comment",
					"numinlets" : 1,
					"numoutlets" : 0,
					"patching_rect" : [ 1682.0, 212.0, 44.0, 16.0 ],
					"presentation" : 1,
					"presentation_rect" : [ 792.833323995272167, 105.999997496604919, 44.0, 16.0 ],
					"text" : "R. Slope",
					"textjustification" : 0
				}

			}
, 			{
				"box" : 				{
					"id" : "obj-140",
					"maxclass" : "live.comment",
					"numinlets" : 1,
					"numoutlets" : 0,
					"patching_rect" : [ 1634.0, 212.0, 44.0, 16.0 ],
					"presentation" : 1,
					"presentation_rect" : [ 697.055546217494793, 105.999997496604919, 44.0, 16.0 ],
					"text" : "D. Slope",
					"textjustification" : 0
				}

			}
, 			{
				"box" : 				{
					"id" : "obj-141",
					"maxclass" : "live.comment",
					"numinlets" : 1,
					"numoutlets" : 0,
					"patching_rect" : [ 1586.0, 212.0, 44.0, 16.0 ],
					"presentation" : 1,
					"presentation_rect" : [ 649.166657328605652, 105.999997496604919, 44.0, 16.0 ],
					"text" : "A. Slope",
					"textjustification" : 0
				}

			}
, 			{
				"box" : 				{
					"id" : "obj-142",
					"maxclass" : "live.comment",
					"numinlets" : 1,
					"numoutlets" : 0,
					"patching_rect" : [ 1548.0, 212.0, 25.0, 16.0 ],
					"presentation" : 1,
					"presentation_rect" : [ 898.111101773049995, 105.999997496604919, 25.0, 16.0 ],
					"text" : "End",
					"textjustification" : 0
				}

			}
, 			{
				"box" : 				{
					"id" : "obj-143",
					"maxclass" : "live.comment",
					"numinlets" : 1,
					"numoutlets" : 0,
					"patching_rect" : [ 1497.0, 212.0, 31.0, 16.0 ],
					"presentation" : 1,
					"presentation_rect" : [ 895.111101773049995, 72.999997496604919, 31.0, 16.0 ],
					"text" : "Peak",
					"textjustification" : 0
				}

			}
, 			{
				"box" : 				{
					"id" : "obj-144",
					"maxclass" : "live.comment",
					"numinlets" : 1,
					"numoutlets" : 0,
					"patching_rect" : [ 1449.0, 212.0, 32.0, 16.0 ],
					"presentation" : 1,
					"presentation_rect" : [ 846.722212884161308, 72.999997496604919, 32.0, 16.0 ],
					"text" : "Initial",
					"textjustification" : 0
				}

			}
, 			{
				"box" : 				{
					"id" : "obj-145",
					"maxclass" : "live.comment",
					"numinlets" : 1,
					"numoutlets" : 0,
					"patching_rect" : [ 1395.0, 212.0, 44.0, 16.0 ],
					"presentation" : 1,
					"presentation_rect" : [ 792.999994575977325, 72.999997496604919, 44.0, 16.0 ],
					"text" : "Release",
					"textjustification" : 0
				}

			}
, 			{
				"box" : 				{
					"id" : "obj-146",
					"maxclass" : "live.comment",
					"numinlets" : 1,
					"numoutlets" : 0,
					"patching_rect" : [ 1347.0, 212.0, 44.0, 16.0 ],
					"presentation" : 1,
					"presentation_rect" : [ 744.94443510638348, 72.999997496604919, 44.0, 16.0 ],
					"text" : "Sustain",
					"textjustification" : 0
				}

			}
, 			{
				"box" : 				{
					"id" : "obj-147",
					"maxclass" : "live.comment",
					"numinlets" : 1,
					"numoutlets" : 0,
					"patching_rect" : [ 1303.0, 212.0, 35.111101773050109, 16.0 ],
					"presentation" : 1,
					"presentation_rect" : [ 700.944448398219265, 72.999997496604919, 35.111101773050109, 16.0 ],
					"text" : "Decay",
					"textjustification" : 0
				}

			}
, 			{
				"box" : 				{
					"id" : "obj-148",
					"maxclass" : "live.comment",
					"numinlets" : 1,
					"numoutlets" : 0,
					"patching_rect" : [ 1251.0, 212.0, 38.111101773050109, 16.0 ],
					"presentation" : 1,
					"presentation_rect" : [ 649.1666659116745, 72.999997496604919, 38.111101773050109, 16.0 ],
					"text" : "Attack",
					"textjustification" : 0
				}

			}
, 			{
				"box" : 				{
					"id" : "obj-152",
					"maxclass" : "newobj",
					"numinlets" : 2,
					"numoutlets" : 1,
					"outlettype" : [ "float" ],
					"patching_rect" : [ 1682.0, 264.0, 39.0, 22.0 ],
					"text" : "/ 100."
				}

			}
, 			{
				"box" : 				{
					"id" : "obj-153",
					"maxclass" : "newobj",
					"numinlets" : 2,
					"numoutlets" : 1,
					"outlettype" : [ "float" ],
					"patching_rect" : [ 1634.0, 264.0, 39.0, 22.0 ],
					"text" : "/ 100."
				}

			}
, 			{
				"box" : 				{
					"id" : "obj-155",
					"maxclass" : "newobj",
					"numinlets" : 2,
					"numoutlets" : 1,
					"outlettype" : [ "float" ],
					"patching_rect" : [ 1586.0, 264.0, 39.0, 22.0 ],
					"text" : "/ 100."
				}

			}
, 			{
				"box" : 				{
					"id" : "obj-160",
					"maxclass" : "newobj",
					"numinlets" : 2,
					"numoutlets" : 1,
					"outlettype" : [ "float" ],
					"patching_rect" : [ 1538.0, 264.0, 39.0, 22.0 ],
					"text" : "/ 100."
				}

			}
, 			{
				"box" : 				{
					"id" : "obj-161",
					"maxclass" : "newobj",
					"numinlets" : 2,
					"numoutlets" : 1,
					"outlettype" : [ "float" ],
					"patching_rect" : [ 1491.0, 264.0, 39.0, 22.0 ],
					"text" : "/ 100."
				}

			}
, 			{
				"box" : 				{
					"id" : "obj-162",
					"maxclass" : "newobj",
					"numinlets" : 2,
					"numoutlets" : 1,
					"outlettype" : [ "float" ],
					"patching_rect" : [ 1443.0, 264.0, 39.0, 22.0 ],
					"text" : "/ 100."
				}

			}
, 			{
				"box" : 				{
					"id" : "obj-163",
					"maxclass" : "newobj",
					"numinlets" : 2,
					"numoutlets" : 1,
					"outlettype" : [ "float" ],
					"patching_rect" : [ 1347.0, 264.0, 39.0, 22.0 ],
					"text" : "/ 100."
				}

			}
, 			{
				"box" : 				{
					"id" : "obj-164",
					"maxclass" : "live.adsrui",
					"numinlets" : 10,
					"numoutlets" : 10,
					"outlettype" : [ "", "", "", "", "", "", "", "", "", "" ],
					"outputmode" : 0,
					"patching_rect" : [ 1251.0, 326.0, 450.0, 254.0 ],
					"presentation" : 1,
					"presentation_rect" : [ 649.1666659116745, -0.000002503395081, 283.444435861375496, 73.0 ],
					"sustain" : 0.0,
					"sustain_exponent" : 2.0,
					"tethering" : 0
				}

			}
, 			{
				"box" : 				{
					"activeslidercolor" : [ 0.897483, 0.462425, 0.452459, 1.0 ],
					"appearance" : 2,
					"id" : "obj-165",
					"maxclass" : "live.numbox",
					"numinlets" : 1,
					"numoutlets" : 2,
					"outlettype" : [ "", "float" ],
					"parameter_enable" : 1,
					"patching_rect" : [ 1682.0, 235.0, 44.0, 13.0 ],
					"presentation" : 1,
					"presentation_rect" : [ 792.833323995272167, 122.999997496604919, 44.0, 13.0 ],
					"saved_attribute_attributes" : 					{
						"activeslidercolor" : 						{
							"expression" : ""
						}
,
						"valueof" : 						{
							"parameter_initial" : [ 100 ],
							"parameter_initial_enable" : 1,
							"parameter_linknames" : 1,
							"parameter_longname" : "Env2.R.Slope",
							"parameter_mmax" : 100.0,
							"parameter_mmin" : -100.0,
							"parameter_shortname" : "Env2.R.Slope",
							"parameter_type" : 0,
							"parameter_unitstyle" : 5
						}

					}
,
					"varname" : "Env2.R.Slope"
				}

			}
, 			{
				"box" : 				{
					"activeslidercolor" : [ 0.897483, 0.462425, 0.452459, 1.0 ],
					"appearance" : 2,
					"id" : "obj-166",
					"maxclass" : "live.numbox",
					"numinlets" : 1,
					"numoutlets" : 2,
					"outlettype" : [ "", "float" ],
					"parameter_enable" : 1,
					"patching_rect" : [ 1634.0, 235.0, 44.0, 13.0 ],
					"presentation" : 1,
					"presentation_rect" : [ 697.055546217494793, 122.999997496604919, 44.0, 13.0 ],
					"saved_attribute_attributes" : 					{
						"activeslidercolor" : 						{
							"expression" : ""
						}
,
						"valueof" : 						{
							"parameter_initial" : [ 100 ],
							"parameter_initial_enable" : 1,
							"parameter_linknames" : 1,
							"parameter_longname" : "Env2.D.Slope",
							"parameter_mmax" : 100.0,
							"parameter_mmin" : -100.0,
							"parameter_shortname" : "Env2.D.Slope",
							"parameter_type" : 0,
							"parameter_unitstyle" : 5
						}

					}
,
					"varname" : "Env2.D.Slope"
				}

			}
, 			{
				"box" : 				{
					"activeslidercolor" : [ 0.897483, 0.462425, 0.452459, 1.0 ],
					"appearance" : 2,
					"id" : "obj-167",
					"maxclass" : "live.numbox",
					"numinlets" : 1,
					"numoutlets" : 2,
					"outlettype" : [ "", "float" ],
					"parameter_enable" : 1,
					"patching_rect" : [ 1586.0, 235.0, 44.0, 13.0 ],
					"presentation" : 1,
					"presentation_rect" : [ 649.166657328605652, 122.999997496604919, 44.0, 13.0 ],
					"saved_attribute_attributes" : 					{
						"activeslidercolor" : 						{
							"expression" : ""
						}
,
						"valueof" : 						{
							"parameter_initial" : [ 0 ],
							"parameter_initial_enable" : 1,
							"parameter_linknames" : 1,
							"parameter_longname" : "Env2.A.Slope",
							"parameter_mmax" : 100.0,
							"parameter_mmin" : -100.0,
							"parameter_shortname" : "Env2.A.Slope",
							"parameter_type" : 0,
							"parameter_unitstyle" : 5
						}

					}
,
					"varname" : "Env2.A.Slope"
				}

			}
, 			{
				"box" : 				{
					"appearance" : 2,
					"id" : "obj-168",
					"maxclass" : "live.numbox",
					"numinlets" : 1,
					"numoutlets" : 2,
					"outlettype" : [ "", "float" ],
					"parameter_enable" : 1,
					"patching_rect" : [ 1395.0, 235.0, 44.0, 13.0 ],
					"presentation" : 1,
					"presentation_rect" : [ 792.833323995272167, 89.999997496604919, 44.0, 13.0 ],
					"saved_attribute_attributes" : 					{
						"valueof" : 						{
							"parameter_exponent" : 8.0,
							"parameter_initial" : [ 50 ],
							"parameter_initial_enable" : 1,
							"parameter_linknames" : 1,
							"parameter_longname" : "Env2.Release",
							"parameter_mmax" : 60000.0,
							"parameter_mmin" : 1.0,
							"parameter_shortname" : "Env2.Release",
							"parameter_type" : 0,
							"parameter_unitstyle" : 2
						}

					}
,
					"varname" : "Env2.Release"
				}

			}
, 			{
				"box" : 				{
					"appearance" : 2,
					"id" : "obj-169",
					"maxclass" : "live.numbox",
					"numinlets" : 1,
					"numoutlets" : 2,
					"outlettype" : [ "", "float" ],
					"parameter_enable" : 1,
					"patching_rect" : [ 1298.0, 235.0, 44.0, 13.0 ],
					"presentation" : 1,
					"presentation_rect" : [ 696.499999284744263, 89.999997496604919, 44.0, 13.0 ],
					"saved_attribute_attributes" : 					{
						"valueof" : 						{
							"parameter_exponent" : 8.0,
							"parameter_initial" : [ 600 ],
							"parameter_initial_enable" : 1,
							"parameter_linknames" : 1,
							"parameter_longname" : "Env2.Decay",
							"parameter_mmax" : 60000.0,
							"parameter_mmin" : 1.0,
							"parameter_shortname" : "Env2.Decay",
							"parameter_type" : 0,
							"parameter_unitstyle" : 2
						}

					}
,
					"varname" : "Env2.Decay"
				}

			}
, 			{
				"box" : 				{
					"appearance" : 2,
					"id" : "obj-170",
					"maxclass" : "live.numbox",
					"numinlets" : 1,
					"numoutlets" : 2,
					"outlettype" : [ "", "float" ],
					"parameter_enable" : 1,
					"patching_rect" : [ 1251.0, 235.0, 44.0, 13.0 ],
					"presentation" : 1,
					"presentation_rect" : [ 649.1666659116745, 89.999997496604919, 44.0, 13.0 ],
					"saved_attribute_attributes" : 					{
						"valueof" : 						{
							"parameter_exponent" : 8.0,
							"parameter_initial" : [ 0 ],
							"parameter_initial_enable" : 1,
							"parameter_linknames" : 1,
							"parameter_longname" : "Env2.Attack[1]",
							"parameter_mmax" : 20000.0,
							"parameter_shortname" : "Env2.Attack",
							"parameter_type" : 0,
							"parameter_unitstyle" : 2
						}

					}
,
					"varname" : "Env2.Attack"
				}

			}
, 			{
				"box" : 				{
					"appearance" : 2,
					"id" : "obj-171",
					"maxclass" : "live.numbox",
					"numinlets" : 1,
					"numoutlets" : 2,
					"outlettype" : [ "", "float" ],
					"parameter_enable" : 1,
					"patching_rect" : [ 1538.0, 235.0, 44.0, 13.0 ],
					"presentation" : 1,
					"presentation_rect" : [ 888.611101773049995, 122.999997496604919, 44.0, 13.0 ],
					"saved_attribute_attributes" : 					{
						"valueof" : 						{
							"parameter_initial" : [ 0 ],
							"parameter_initial_enable" : 1,
							"parameter_linknames" : 1,
							"parameter_longname" : "Env2.End",
							"parameter_mmax" : 100.0,
							"parameter_shortname" : "Env2.End",
							"parameter_type" : 0,
							"parameter_unitstyle" : 5
						}

					}
,
					"varname" : "Env2.End"
				}

			}
, 			{
				"box" : 				{
					"appearance" : 2,
					"id" : "obj-172",
					"maxclass" : "live.numbox",
					"numinlets" : 1,
					"numoutlets" : 2,
					"outlettype" : [ "", "float" ],
					"parameter_enable" : 1,
					"patching_rect" : [ 1347.0, 235.0, 44.0, 13.0 ],
					"presentation" : 1,
					"presentation_rect" : [ 744.94443510638348, 89.999997496604919, 44.0, 13.0 ],
					"saved_attribute_attributes" : 					{
						"valueof" : 						{
							"parameter_initial" : [ 0 ],
							"parameter_initial_enable" : 1,
							"parameter_linknames" : 1,
							"parameter_longname" : "Env2.Sustain",
							"parameter_mmax" : 100.0,
							"parameter_shortname" : "Env2.Sustain",
							"parameter_type" : 0,
							"parameter_unitstyle" : 5
						}

					}
,
					"varname" : "Env2.Sustain"
				}

			}
, 			{
				"box" : 				{
					"appearance" : 2,
					"id" : "obj-173",
					"maxclass" : "live.numbox",
					"numinlets" : 1,
					"numoutlets" : 2,
					"outlettype" : [ "", "float" ],
					"parameter_enable" : 1,
					"patching_rect" : [ 1491.0, 235.0, 44.0, 13.0 ],
					"presentation" : 1,
					"presentation_rect" : [ 888.611101773049995, 89.999997496604919, 44.0, 13.0 ],
					"saved_attribute_attributes" : 					{
						"valueof" : 						{
							"parameter_initial" : [ 100 ],
							"parameter_initial_enable" : 1,
							"parameter_linknames" : 1,
							"parameter_longname" : "Env2.Peak",
							"parameter_mmax" : 100.0,
							"parameter_shortname" : "Env2.Peak",
							"parameter_type" : 0,
							"parameter_unitstyle" : 5
						}

					}
,
					"varname" : "Env2.Peak"
				}

			}
, 			{
				"box" : 				{
					"appearance" : 2,
					"id" : "obj-174",
					"maxclass" : "live.numbox",
					"numinlets" : 1,
					"numoutlets" : 2,
					"outlettype" : [ "", "float" ],
					"parameter_enable" : 1,
					"patching_rect" : [ 1443.0, 235.0, 44.0, 13.0 ],
					"presentation" : 1,
					"presentation_rect" : [ 840.722212884161308, 89.999997496604919, 44.0, 13.0 ],
					"saved_attribute_attributes" : 					{
						"valueof" : 						{
							"parameter_initial" : [ 0 ],
							"parameter_initial_enable" : 1,
							"parameter_linknames" : 1,
							"parameter_longname" : "Env2.Initial",
							"parameter_mmax" : 100.0,
							"parameter_shortname" : "Env2.Initial",
							"parameter_type" : 0,
							"parameter_unitstyle" : 5
						}

					}
,
					"varname" : "Env2.Initial"
				}

			}
, 			{
				"box" : 				{
					"id" : "obj-84",
					"maxclass" : "live.comment",
					"numinlets" : 1,
					"numoutlets" : 0,
					"patching_rect" : [ 1160.666657328605652, 181.999997496604919, 44.0, 16.0 ],
					"presentation" : 1,
					"presentation_rect" : [ 475.333323995272167, 104.999997496604919, 44.0, 16.0 ],
					"text" : "R. Slope",
					"textjustification" : 0
				}

			}
, 			{
				"box" : 				{
					"id" : "obj-85",
					"maxclass" : "live.comment",
					"numinlets" : 1,
					"numoutlets" : 0,
					"patching_rect" : [ 1112.777768439716738, 181.999997496604919, 44.0, 16.0 ],
					"presentation" : 1,
					"presentation_rect" : [ 377.555546217494566, 104.999997496604919, 44.0, 16.0 ],
					"text" : "D. Slope",
					"textjustification" : 0
				}

			}
, 			{
				"box" : 				{
					"id" : "obj-86",
					"maxclass" : "live.comment",
					"numinlets" : 1,
					"numoutlets" : 0,
					"patching_rect" : [ 1064.888879550827824, 181.999997496604919, 44.0, 16.0 ],
					"presentation" : 1,
					"presentation_rect" : [ 329.666657328605652, 104.999997496604919, 44.0, 16.0 ],
					"text" : "A. Slope",
					"textjustification" : 0
				}

			}
, 			{
				"box" : 				{
					"id" : "obj-87",
					"maxclass" : "live.comment",
					"numinlets" : 1,
					"numoutlets" : 0,
					"patching_rect" : [ 1026.499990661938909, 181.999997496604919, 25.0, 16.0 ],
					"presentation" : 1,
					"presentation_rect" : [ 580.611101773049995, 104.999997496604919, 25.0, 16.0 ],
					"text" : "End",
					"textjustification" : 0
				}

			}
, 			{
				"box" : 				{
					"id" : "obj-89",
					"maxclass" : "live.comment",
					"numinlets" : 1,
					"numoutlets" : 0,
					"patching_rect" : [ 975.611101773049995, 181.999997496604919, 31.0, 16.0 ],
					"presentation" : 1,
					"presentation_rect" : [ 577.611101773049995, 71.999997496604919, 31.0, 16.0 ],
					"text" : "Peak",
					"textjustification" : 0
				}

			}
, 			{
				"box" : 				{
					"id" : "obj-90",
					"maxclass" : "live.comment",
					"numinlets" : 1,
					"numoutlets" : 0,
					"patching_rect" : [ 927.222212884161308, 181.999997496604919, 32.0, 16.0 ],
					"presentation" : 1,
					"presentation_rect" : [ 529.222212884161308, 71.999997496604919, 32.0, 16.0 ],
					"text" : "Initial",
					"textjustification" : 0
				}

			}
, 			{
				"box" : 				{
					"id" : "obj-92",
					"maxclass" : "live.comment",
					"numinlets" : 1,
					"numoutlets" : 0,
					"patching_rect" : [ 873.499994575977325, 181.999997496604919, 44.0, 16.0 ],
					"presentation" : 1,
					"presentation_rect" : [ 475.499994575977325, 71.999997496604919, 44.0, 16.0 ],
					"text" : "Release",
					"textjustification" : 0
				}

			}
, 			{
				"box" : 				{
					"id" : "obj-93",
					"maxclass" : "live.comment",
					"numinlets" : 1,
					"numoutlets" : 0,
					"patching_rect" : [ 825.44443510638348, 181.999997496604919, 44.0, 16.0 ],
					"presentation" : 1,
					"presentation_rect" : [ 427.44443510638348, 71.999997496604919, 44.0, 16.0 ],
					"text" : "Sustain",
					"textjustification" : 0
				}

			}
, 			{
				"box" : 				{
					"id" : "obj-94",
					"maxclass" : "live.comment",
					"numinlets" : 1,
					"numoutlets" : 0,
					"patching_rect" : [ 781.444448398219265, 181.999997496604919, 35.111101773050109, 16.0 ],
					"presentation" : 1,
					"presentation_rect" : [ 383.444448398219265, 71.999997496604919, 35.111101773050109, 16.0 ],
					"text" : "Decay",
					"textjustification" : 0
				}

			}
, 			{
				"box" : 				{
					"id" : "obj-99",
					"maxclass" : "live.comment",
					"numinlets" : 1,
					"numoutlets" : 0,
					"patching_rect" : [ 729.6666659116745, 181.999997496604919, 38.111101773050109, 16.0 ],
					"presentation" : 1,
					"presentation_rect" : [ 331.6666659116745, 71.999997496604919, 38.111101773050109, 16.0 ],
					"text" : "Attack",
					"textjustification" : 0
				}

			}
, 			{
				"box" : 				{
					"id" : "obj-103",
					"maxclass" : "newobj",
					"numinlets" : 2,
					"numoutlets" : 1,
					"outlettype" : [ "float" ],
					"patching_rect" : [ 1161.0, 249.0, 39.0, 22.0 ],
					"text" : "/ 100."
				}

			}
, 			{
				"box" : 				{
					"id" : "obj-104",
					"maxclass" : "newobj",
					"numinlets" : 2,
					"numoutlets" : 1,
					"outlettype" : [ "float" ],
					"patching_rect" : [ 1113.0, 249.0, 39.0, 22.0 ],
					"text" : "/ 100."
				}

			}
, 			{
				"box" : 				{
					"id" : "obj-105",
					"maxclass" : "newobj",
					"numinlets" : 2,
					"numoutlets" : 1,
					"outlettype" : [ "float" ],
					"patching_rect" : [ 1065.0, 249.0, 39.0, 22.0 ],
					"text" : "/ 100."
				}

			}
, 			{
				"box" : 				{
					"id" : "obj-110",
					"maxclass" : "newobj",
					"numinlets" : 2,
					"numoutlets" : 1,
					"outlettype" : [ "float" ],
					"patching_rect" : [ 1017.0, 249.0, 39.0, 22.0 ],
					"text" : "/ 100."
				}

			}
, 			{
				"box" : 				{
					"id" : "obj-111",
					"maxclass" : "newobj",
					"numinlets" : 2,
					"numoutlets" : 1,
					"outlettype" : [ "float" ],
					"patching_rect" : [ 969.0, 249.0, 39.0, 22.0 ],
					"text" : "/ 100."
				}

			}
, 			{
				"box" : 				{
					"id" : "obj-112",
					"maxclass" : "newobj",
					"numinlets" : 2,
					"numoutlets" : 1,
					"outlettype" : [ "float" ],
					"patching_rect" : [ 921.0, 249.0, 39.0, 22.0 ],
					"text" : "/ 100."
				}

			}
, 			{
				"box" : 				{
					"id" : "obj-113",
					"maxclass" : "newobj",
					"numinlets" : 2,
					"numoutlets" : 1,
					"outlettype" : [ "float" ],
					"patching_rect" : [ 825.0, 249.0, 39.0, 22.0 ],
					"text" : "/ 100."
				}

			}
, 			{
				"box" : 				{
					"id" : "obj-114",
					"maxclass" : "live.adsrui",
					"numinlets" : 10,
					"numoutlets" : 10,
					"outlettype" : [ "", "", "", "", "", "", "", "", "", "" ],
					"outputmode" : 0,
					"patching_rect" : [ 729.6666659116745, 327.666659832000732, 450.0, 254.0 ],
					"presentation" : 1,
					"presentation_rect" : [ 331.999999284744263, -0.000002503395081, 281.0, 73.0 ],
					"sustain" : 0.0,
					"sustain_exponent" : 2.0,
					"tethering" : 0
				}

			}
, 			{
				"box" : 				{
					"activeslidercolor" : [ 0.897483, 0.462425, 0.452459, 1.0 ],
					"appearance" : 2,
					"id" : "obj-115",
					"maxclass" : "live.numbox",
					"numinlets" : 1,
					"numoutlets" : 2,
					"outlettype" : [ "", "float" ],
					"parameter_enable" : 1,
					"patching_rect" : [ 1160.666657328605652, 207.999997496604919, 44.0, 13.0 ],
					"presentation" : 1,
					"presentation_rect" : [ 473.333323995272167, 122.999997496604919, 44.0, 13.0 ],
					"saved_attribute_attributes" : 					{
						"activeslidercolor" : 						{
							"expression" : ""
						}
,
						"valueof" : 						{
							"parameter_initial" : [ 100 ],
							"parameter_initial_enable" : 1,
							"parameter_linknames" : 1,
							"parameter_longname" : "Env1.R.Slope",
							"parameter_mmax" : 100.0,
							"parameter_mmin" : -100.0,
							"parameter_shortname" : "Env1.R.Slope",
							"parameter_type" : 0,
							"parameter_unitstyle" : 5
						}

					}
,
					"varname" : "Env1.R.Slope"
				}

			}
, 			{
				"box" : 				{
					"activeslidercolor" : [ 0.897483, 0.462425, 0.452459, 1.0 ],
					"appearance" : 2,
					"id" : "obj-116",
					"maxclass" : "live.numbox",
					"numinlets" : 1,
					"numoutlets" : 2,
					"outlettype" : [ "", "float" ],
					"parameter_enable" : 1,
					"patching_rect" : [ 1112.777768439716738, 207.999997496604919, 44.0, 13.0 ],
					"presentation" : 1,
					"presentation_rect" : [ 375.555546217494566, 122.999997496604919, 44.0, 13.0 ],
					"saved_attribute_attributes" : 					{
						"activeslidercolor" : 						{
							"expression" : ""
						}
,
						"valueof" : 						{
							"parameter_initial" : [ 100 ],
							"parameter_initial_enable" : 1,
							"parameter_linknames" : 1,
							"parameter_longname" : "Env1.D.Slope",
							"parameter_mmax" : 100.0,
							"parameter_mmin" : -100.0,
							"parameter_shortname" : "Env1.D.Slope",
							"parameter_type" : 0,
							"parameter_unitstyle" : 5
						}

					}
,
					"varname" : "Env1.D.Slope"
				}

			}
, 			{
				"box" : 				{
					"activeslidercolor" : [ 0.897483, 0.462425, 0.452459, 1.0 ],
					"appearance" : 2,
					"id" : "obj-117",
					"maxclass" : "live.numbox",
					"numinlets" : 1,
					"numoutlets" : 2,
					"outlettype" : [ "", "float" ],
					"parameter_enable" : 1,
					"patching_rect" : [ 1064.888879550827824, 207.999997496604919, 44.0, 13.0 ],
					"presentation" : 1,
					"presentation_rect" : [ 327.666657328605652, 122.999997496604919, 44.0, 13.0 ],
					"saved_attribute_attributes" : 					{
						"activeslidercolor" : 						{
							"expression" : ""
						}
,
						"valueof" : 						{
							"parameter_initial" : [ 0 ],
							"parameter_initial_enable" : 1,
							"parameter_linknames" : 1,
							"parameter_longname" : "Env1.A.Slope",
							"parameter_mmax" : 100.0,
							"parameter_mmin" : -100.0,
							"parameter_shortname" : "Env1.A.Slope",
							"parameter_type" : 0,
							"parameter_unitstyle" : 5
						}

					}
,
					"varname" : "Env1.A.Slope"
				}

			}
, 			{
				"box" : 				{
					"appearance" : 2,
					"id" : "obj-118",
					"maxclass" : "live.numbox",
					"numinlets" : 1,
					"numoutlets" : 2,
					"outlettype" : [ "", "float" ],
					"parameter_enable" : 1,
					"patching_rect" : [ 873.333323995272167, 207.999997496604919, 44.0, 13.0 ],
					"presentation" : 1,
					"presentation_rect" : [ 473.333323995272167, 89.999997496604919, 44.0, 13.0 ],
					"saved_attribute_attributes" : 					{
						"valueof" : 						{
							"parameter_exponent" : 8.0,
							"parameter_initial" : [ 50 ],
							"parameter_initial_enable" : 1,
							"parameter_linknames" : 1,
							"parameter_longname" : "Env1.Release",
							"parameter_mmax" : 60000.0,
							"parameter_mmin" : 1.0,
							"parameter_shortname" : "Env1.Release",
							"parameter_type" : 0,
							"parameter_unitstyle" : 2
						}

					}
,
					"varname" : "Env1.Release"
				}

			}
, 			{
				"box" : 				{
					"appearance" : 2,
					"id" : "obj-119",
					"maxclass" : "live.numbox",
					"numinlets" : 1,
					"numoutlets" : 2,
					"outlettype" : [ "", "float" ],
					"parameter_enable" : 1,
					"patching_rect" : [ 776.999999284744263, 207.999997496604919, 44.0, 13.0 ],
					"presentation" : 1,
					"presentation_rect" : [ 376.999999284744263, 89.999997496604919, 44.0, 13.0 ],
					"saved_attribute_attributes" : 					{
						"valueof" : 						{
							"parameter_exponent" : 8.0,
							"parameter_initial" : [ 600 ],
							"parameter_initial_enable" : 1,
							"parameter_linknames" : 1,
							"parameter_longname" : "Env1.Decay",
							"parameter_mmax" : 60000.0,
							"parameter_mmin" : 1.0,
							"parameter_shortname" : "Env1.Decay",
							"parameter_type" : 0,
							"parameter_unitstyle" : 2
						}

					}
,
					"varname" : "Env1.Decay"
				}

			}
, 			{
				"box" : 				{
					"appearance" : 2,
					"id" : "obj-120",
					"maxclass" : "live.numbox",
					"numinlets" : 1,
					"numoutlets" : 2,
					"outlettype" : [ "", "float" ],
					"parameter_enable" : 1,
					"patching_rect" : [ 729.6666659116745, 207.999997496604919, 44.0, 13.0 ],
					"presentation" : 1,
					"presentation_rect" : [ 329.6666659116745, 89.999997496604919, 44.0, 13.0 ],
					"saved_attribute_attributes" : 					{
						"valueof" : 						{
							"parameter_exponent" : 8.0,
							"parameter_initial" : [ 0 ],
							"parameter_initial_enable" : 1,
							"parameter_linknames" : 1,
							"parameter_longname" : "Env1.Attack",
							"parameter_mmax" : 20000.0,
							"parameter_shortname" : "Env1.Attack",
							"parameter_type" : 0,
							"parameter_unitstyle" : 2
						}

					}
,
					"varname" : "Env1.Attack"
				}

			}
, 			{
				"box" : 				{
					"appearance" : 2,
					"id" : "obj-121",
					"maxclass" : "live.numbox",
					"numinlets" : 1,
					"numoutlets" : 2,
					"outlettype" : [ "", "float" ],
					"parameter_enable" : 1,
					"patching_rect" : [ 1016.999990661938909, 207.999997496604919, 44.0, 13.0 ],
					"presentation" : 1,
					"presentation_rect" : [ 569.111101773049995, 122.999997496604919, 44.0, 13.0 ],
					"saved_attribute_attributes" : 					{
						"valueof" : 						{
							"parameter_initial" : [ 0 ],
							"parameter_initial_enable" : 1,
							"parameter_linknames" : 1,
							"parameter_longname" : "Env1.End",
							"parameter_mmax" : 100.0,
							"parameter_shortname" : "Env1.End",
							"parameter_type" : 0,
							"parameter_unitstyle" : 5
						}

					}
,
					"varname" : "Env1.End"
				}

			}
, 			{
				"box" : 				{
					"appearance" : 2,
					"id" : "obj-122",
					"maxclass" : "live.numbox",
					"numinlets" : 1,
					"numoutlets" : 2,
					"outlettype" : [ "", "float" ],
					"parameter_enable" : 1,
					"patching_rect" : [ 825.44443510638348, 207.999997496604919, 44.0, 13.0 ],
					"presentation" : 1,
					"presentation_rect" : [ 425.44443510638348, 89.999997496604919, 44.0, 13.0 ],
					"saved_attribute_attributes" : 					{
						"valueof" : 						{
							"parameter_initial" : [ 0 ],
							"parameter_initial_enable" : 1,
							"parameter_linknames" : 1,
							"parameter_longname" : "Env1.Sustain",
							"parameter_mmax" : 100.0,
							"parameter_shortname" : "Env1.Sustain",
							"parameter_type" : 0,
							"parameter_unitstyle" : 5
						}

					}
,
					"varname" : "Env1.Sustain"
				}

			}
, 			{
				"box" : 				{
					"appearance" : 2,
					"id" : "obj-123",
					"maxclass" : "live.numbox",
					"numinlets" : 1,
					"numoutlets" : 2,
					"outlettype" : [ "", "float" ],
					"parameter_enable" : 1,
					"patching_rect" : [ 969.111101773049995, 207.999997496604919, 44.0, 13.0 ],
					"presentation" : 1,
					"presentation_rect" : [ 569.111101773049995, 89.999997496604919, 44.0, 13.0 ],
					"saved_attribute_attributes" : 					{
						"valueof" : 						{
							"parameter_initial" : [ 100 ],
							"parameter_initial_enable" : 1,
							"parameter_linknames" : 1,
							"parameter_longname" : "Env1.Peak",
							"parameter_mmax" : 100.0,
							"parameter_shortname" : "Env1.Peak",
							"parameter_type" : 0,
							"parameter_unitstyle" : 5
						}

					}
,
					"varname" : "Env1.Peak"
				}

			}
, 			{
				"box" : 				{
					"appearance" : 2,
					"id" : "obj-124",
					"maxclass" : "live.numbox",
					"numinlets" : 1,
					"numoutlets" : 2,
					"outlettype" : [ "", "float" ],
					"parameter_enable" : 1,
					"patching_rect" : [ 921.222212884161308, 207.999997496604919, 44.0, 13.0 ],
					"presentation" : 1,
					"presentation_rect" : [ 521.222212884161308, 89.999997496604919, 44.0, 13.0 ],
					"saved_attribute_attributes" : 					{
						"valueof" : 						{
							"parameter_initial" : [ 0 ],
							"parameter_initial_enable" : 1,
							"parameter_linknames" : 1,
							"parameter_longname" : "Env1.Initial",
							"parameter_mmax" : 100.0,
							"parameter_shortname" : "Env1.Initial",
							"parameter_type" : 0,
							"parameter_unitstyle" : 5
						}

					}
,
					"varname" : "Env1.Initial"
				}

			}
, 			{
				"box" : 				{
					"id" : "obj-33",
					"maxclass" : "live.comment",
					"numinlets" : 1,
					"numoutlets" : 0,
					"patching_rect" : [ 605.666657328605652, 179.999997496604919, 44.0, 16.0 ],
					"presentation" : 1,
					"presentation_rect" : [ 144.333323995272281, 104.999997496604919, 44.0, 16.0 ],
					"text" : "R. Slope",
					"textjustification" : 0
				}

			}
, 			{
				"box" : 				{
					"id" : "obj-32",
					"maxclass" : "live.comment",
					"numinlets" : 1,
					"numoutlets" : 0,
					"patching_rect" : [ 557.777768439716738, 179.999997496604919, 44.0, 16.0 ],
					"presentation" : 1,
					"presentation_rect" : [ 46.999999284744263, 104.999997496604919, 44.0, 16.0 ],
					"text" : "D. Slope",
					"textjustification" : 0
				}

			}
, 			{
				"box" : 				{
					"id" : "obj-31",
					"maxclass" : "live.comment",
					"numinlets" : 1,
					"numoutlets" : 0,
					"patching_rect" : [ 509.888879550827824, 179.999997496604919, 44.0, 16.0 ],
					"presentation" : 1,
					"presentation_rect" : [ 0.6666659116745, 104.999997496604919, 44.0, 16.0 ],
					"text" : "A. Slope",
					"textjustification" : 0
				}

			}
, 			{
				"box" : 				{
					"id" : "obj-29",
					"maxclass" : "live.comment",
					"numinlets" : 1,
					"numoutlets" : 0,
					"patching_rect" : [ 471.499990661938909, 179.999997496604919, 25.0, 16.0 ],
					"presentation" : 1,
					"presentation_rect" : [ 248.111101773050109, 104.999997496604919, 25.0, 16.0 ],
					"text" : "End",
					"textjustification" : 0
				}

			}
, 			{
				"box" : 				{
					"id" : "obj-27",
					"maxclass" : "live.comment",
					"numinlets" : 1,
					"numoutlets" : 0,
					"patching_rect" : [ 420.611101773050109, 179.999997496604919, 31.0, 16.0 ],
					"presentation" : 1,
					"presentation_rect" : [ 248.611101773050109, 73.999997496604919, 31.0, 16.0 ],
					"text" : "Peak",
					"textjustification" : 0
				}

			}
, 			{
				"box" : 				{
					"id" : "obj-22",
					"maxclass" : "live.comment",
					"numinlets" : 1,
					"numoutlets" : 0,
					"patching_rect" : [ 372.222212884161195, 179.999997496604919, 32.0, 16.0 ],
					"presentation" : 1,
					"presentation_rect" : [ 200.222212884161195, 73.999997496604919, 32.0, 16.0 ],
					"text" : "Initial",
					"textjustification" : 0
				}

			}
, 			{
				"box" : 				{
					"id" : "obj-50",
					"maxclass" : "live.comment",
					"numinlets" : 1,
					"numoutlets" : 0,
					"patching_rect" : [ 318.499994575977269, 179.999997496604919, 44.0, 16.0 ],
					"presentation" : 1,
					"presentation_rect" : [ 146.499994575977269, 73.999997496604919, 44.0, 16.0 ],
					"text" : "Release",
					"textjustification" : 0
				}

			}
, 			{
				"box" : 				{
					"id" : "obj-20",
					"maxclass" : "live.comment",
					"numinlets" : 1,
					"numoutlets" : 0,
					"patching_rect" : [ 270.444435106383423, 179.999997496604919, 44.0, 16.0 ],
					"presentation" : 1,
					"presentation_rect" : [ 98.444435106383423, 73.999997496604919, 44.0, 16.0 ],
					"text" : "Sustain",
					"textjustification" : 0
				}

			}
, 			{
				"box" : 				{
					"id" : "obj-18",
					"maxclass" : "live.comment",
					"numinlets" : 1,
					"numoutlets" : 0,
					"patching_rect" : [ 226.444448398219208, 179.999997496604919, 35.111101773050109, 16.0 ],
					"presentation" : 1,
					"presentation_rect" : [ 54.444448398219208, 73.999997496604919, 35.111101773050109, 16.0 ],
					"text" : "Decay",
					"textjustification" : 0
				}

			}
, 			{
				"box" : 				{
					"id" : "obj-1",
					"maxclass" : "live.comment",
					"numinlets" : 1,
					"numoutlets" : 0,
					"patching_rect" : [ 174.6666659116745, 179.999997496604919, 38.111101773050109, 16.0 ],
					"presentation" : 1,
					"presentation_rect" : [ 2.6666659116745, 73.999997496604919, 38.111101773050109, 16.0 ],
					"text" : "Attack",
					"textjustification" : 0
				}

			}
, 			{
				"box" : 				{
					"id" : "obj-62",
					"maxclass" : "newobj",
					"numinlets" : 2,
					"numoutlets" : 1,
					"outlettype" : [ "float" ],
					"patching_rect" : [ 605.666657328605652, 227.666659832000732, 39.0, 22.0 ],
					"text" : "/ 100."
				}

			}
, 			{
				"box" : 				{
					"id" : "obj-63",
					"maxclass" : "newobj",
					"numinlets" : 2,
					"numoutlets" : 1,
					"outlettype" : [ "float" ],
					"patching_rect" : [ 557.777768439716738, 227.666659832000732, 39.0, 22.0 ],
					"text" : "/ 100."
				}

			}
, 			{
				"box" : 				{
					"id" : "obj-64",
					"maxclass" : "newobj",
					"numinlets" : 2,
					"numoutlets" : 1,
					"outlettype" : [ "float" ],
					"patching_rect" : [ 509.888879550827824, 227.666659832000732, 39.0, 22.0 ],
					"text" : "/ 100."
				}

			}
, 			{
				"box" : 				{
					"id" : "obj-91",
					"maxclass" : "newobj",
					"numinlets" : 2,
					"numoutlets" : 1,
					"outlettype" : [ "float" ],
					"patching_rect" : [ 461.999990661938909, 227.666659832000732, 39.0, 22.0 ],
					"text" : "/ 100."
				}

			}
, 			{
				"box" : 				{
					"id" : "obj-88",
					"maxclass" : "newobj",
					"numinlets" : 2,
					"numoutlets" : 1,
					"outlettype" : [ "float" ],
					"patching_rect" : [ 414.111101773050109, 227.666659832000732, 39.0, 22.0 ],
					"text" : "/ 100."
				}

			}
, 			{
				"box" : 				{
					"id" : "obj-71",
					"maxclass" : "newobj",
					"numinlets" : 2,
					"numoutlets" : 1,
					"outlettype" : [ "float" ],
					"patching_rect" : [ 366.222212884161195, 227.666659832000732, 39.0, 22.0 ],
					"text" : "/ 100."
				}

			}
, 			{
				"box" : 				{
					"id" : "obj-154",
					"maxclass" : "newobj",
					"numinlets" : 2,
					"numoutlets" : 1,
					"outlettype" : [ "float" ],
					"patching_rect" : [ 270.444435106383423, 227.666659832000732, 39.0, 22.0 ],
					"text" : "/ 100."
				}

			}
, 			{
				"box" : 				{
					"attack_time" : 1.263379334265238,
					"final" : 0.012633793342652,
					"id" : "obj-19",
					"maxclass" : "live.adsrui",
					"numinlets" : 10,
					"numoutlets" : 10,
					"outlettype" : [ "", "", "", "", "", "", "", "", "", "" ],
					"outputmode" : 0,
					"patching_rect" : [ 175.0, 295.0, 449.999999999999886, 173.0 ],
					"presentation" : 1,
					"presentation_rect" : [ -0.3333340883255, -0.000002503395081, 283.444435861375609, 73.0 ],
					"sustain" : 0.5,
					"sustain_exponent" : 2.0,
					"tethering" : 0
				}

			}
, 			{
				"box" : 				{
					"activeslidercolor" : [ 0.897483, 0.462425, 0.452459, 1.0 ],
					"appearance" : 2,
					"id" : "obj-26",
					"maxclass" : "live.numbox",
					"numinlets" : 1,
					"numoutlets" : 2,
					"outlettype" : [ "", "float" ],
					"parameter_enable" : 1,
					"patching_rect" : [ 605.666657328605652, 203.999997496604919, 44.0, 13.0 ],
					"presentation" : 1,
					"presentation_rect" : [ 143.333323995272281, 120.999997496604919, 44.0, 13.0 ],
					"saved_attribute_attributes" : 					{
						"activeslidercolor" : 						{
							"expression" : ""
						}
,
						"valueof" : 						{
							"parameter_initial" : [ 100 ],
							"parameter_initial_enable" : 1,
							"parameter_linknames" : 1,
							"parameter_longname" : "Amp.R.Slope",
							"parameter_mmax" : 100.0,
							"parameter_mmin" : -100.0,
							"parameter_shortname" : "Amp.R.Slope",
							"parameter_type" : 0,
							"parameter_unitstyle" : 5
						}

					}
,
					"varname" : "Amp.R.Slope"
				}

			}
, 			{
				"box" : 				{
					"activeslidercolor" : [ 0.897483, 0.462425, 0.452459, 1.0 ],
					"appearance" : 2,
					"id" : "obj-28",
					"maxclass" : "live.numbox",
					"numinlets" : 1,
					"numoutlets" : 2,
					"outlettype" : [ "", "float" ],
					"parameter_enable" : 1,
					"patching_rect" : [ 557.777768439716738, 203.999997496604919, 44.0, 13.0 ],
					"presentation" : 1,
					"presentation_rect" : [ 45.999999284744263, 120.999997496604919, 44.0, 13.0 ],
					"saved_attribute_attributes" : 					{
						"activeslidercolor" : 						{
							"expression" : ""
						}
,
						"valueof" : 						{
							"parameter_initial" : [ 100 ],
							"parameter_initial_enable" : 1,
							"parameter_linknames" : 1,
							"parameter_longname" : "Amp.D.Slope",
							"parameter_mmax" : 100.0,
							"parameter_mmin" : -100.0,
							"parameter_shortname" : "Amp.D.Slope",
							"parameter_type" : 0,
							"parameter_unitstyle" : 5
						}

					}
,
					"varname" : "Amp.D.Slope"
				}

			}
, 			{
				"box" : 				{
					"activeslidercolor" : [ 0.897483, 0.462425, 0.452459, 1.0 ],
					"appearance" : 2,
					"id" : "obj-30",
					"maxclass" : "live.numbox",
					"numinlets" : 1,
					"numoutlets" : 2,
					"outlettype" : [ "", "float" ],
					"parameter_enable" : 1,
					"patching_rect" : [ 509.888879550827824, 203.999997496604919, 44.0, 13.0 ],
					"presentation" : 1,
					"presentation_rect" : [ -0.3333340883255, 120.999997496604919, 44.0, 13.0 ],
					"saved_attribute_attributes" : 					{
						"activeslidercolor" : 						{
							"expression" : ""
						}
,
						"valueof" : 						{
							"parameter_initial" : [ 0 ],
							"parameter_initial_enable" : 1,
							"parameter_linknames" : 1,
							"parameter_longname" : "Amp.A.Slope",
							"parameter_mmax" : 100.0,
							"parameter_mmin" : -100.0,
							"parameter_shortname" : "Amp.A.Slope",
							"parameter_type" : 0,
							"parameter_unitstyle" : 5
						}

					}
,
					"varname" : "Amp.A.Slope"
				}

			}
, 			{
				"box" : 				{
					"appearance" : 2,
					"id" : "obj-24",
					"maxclass" : "live.numbox",
					"numinlets" : 1,
					"numoutlets" : 2,
					"outlettype" : [ "", "float" ],
					"parameter_enable" : 1,
					"patching_rect" : [ 318.333323995272281, 203.999997496604919, 44.0, 13.0 ],
					"presentation" : 1,
					"presentation_rect" : [ 143.333323995272281, 89.999997496604919, 44.0, 13.0 ],
					"saved_attribute_attributes" : 					{
						"valueof" : 						{
							"parameter_exponent" : 8.0,
							"parameter_initial" : [ 49.999999999999972 ],
							"parameter_initial_enable" : 1,
							"parameter_linknames" : 1,
							"parameter_longname" : "Amp.Release",
							"parameter_mmax" : 60000.0,
							"parameter_mmin" : 1.0,
							"parameter_shortname" : "Amp.Release",
							"parameter_type" : 0,
							"parameter_unitstyle" : 2
						}

					}
,
					"varname" : "Amp.Release"
				}

			}
, 			{
				"box" : 				{
					"appearance" : 2,
					"id" : "obj-65",
					"maxclass" : "live.numbox",
					"numinlets" : 1,
					"numoutlets" : 2,
					"outlettype" : [ "", "float" ],
					"parameter_enable" : 1,
					"patching_rect" : [ 221.999999284744263, 203.999997496604919, 44.0, 13.0 ],
					"presentation" : 1,
					"presentation_rect" : [ 46.999999284744263, 89.999997496604919, 44.0, 13.0 ],
					"saved_attribute_attributes" : 					{
						"valueof" : 						{
							"parameter_exponent" : 8.0,
							"parameter_initial" : [ 600 ],
							"parameter_initial_enable" : 1,
							"parameter_linknames" : 1,
							"parameter_longname" : "Env2.Decay[1]",
							"parameter_mmax" : 60000.0,
							"parameter_mmin" : 1.0,
							"parameter_shortname" : "Env2.Decay",
							"parameter_type" : 0,
							"parameter_unitstyle" : 2
						}

					}
,
					"varname" : "Amp.Decay"
				}

			}
, 			{
				"box" : 				{
					"appearance" : 2,
					"id" : "obj-12",
					"maxclass" : "live.numbox",
					"numinlets" : 1,
					"numoutlets" : 2,
					"outlettype" : [ "", "float" ],
					"parameter_enable" : 1,
					"patching_rect" : [ 174.6666659116745, 203.999997496604919, 44.0, 13.0 ],
					"presentation" : 1,
					"presentation_rect" : [ -0.3333340883255, 89.999997496604919, 44.0, 13.0 ],
					"saved_attribute_attributes" : 					{
						"valueof" : 						{
							"parameter_exponent" : 8.0,
							"parameter_initial" : [ 1.263379334265238 ],
							"parameter_initial_enable" : 1,
							"parameter_linknames" : 1,
							"parameter_longname" : "Amp.Attack",
							"parameter_mmax" : 20000.0,
							"parameter_shortname" : "Amp.Attack",
							"parameter_type" : 0,
							"parameter_unitstyle" : 2
						}

					}
,
					"varname" : "Amp.Attack"
				}

			}
, 			{
				"box" : 				{
					"appearance" : 2,
					"id" : "obj-66",
					"maxclass" : "live.numbox",
					"numinlets" : 1,
					"numoutlets" : 2,
					"outlettype" : [ "", "float" ],
					"parameter_enable" : 1,
					"patching_rect" : [ 461.999990661938909, 203.999997496604919, 44.0, 13.0 ],
					"presentation" : 1,
					"presentation_rect" : [ 235.611101773050109, 120.999997496604919, 44.0, 13.0 ],
					"saved_attribute_attributes" : 					{
						"valueof" : 						{
							"parameter_initial" : [ 1.263379334265238 ],
							"parameter_initial_enable" : 1,
							"parameter_linknames" : 1,
							"parameter_longname" : "Env2.Attack",
							"parameter_mmax" : 100.0,
							"parameter_shortname" : "Env2.Attack",
							"parameter_type" : 0,
							"parameter_unitstyle" : 5
						}

					}
,
					"varname" : "Amp.End"
				}

			}
, 			{
				"box" : 				{
					"appearance" : 2,
					"id" : "obj-38",
					"maxclass" : "live.numbox",
					"numinlets" : 1,
					"numoutlets" : 2,
					"outlettype" : [ "", "float" ],
					"parameter_enable" : 1,
					"patching_rect" : [ 270.444435106383423, 203.999997496604919, 44.0, 13.0 ],
					"presentation" : 1,
					"presentation_rect" : [ 95.444435106383423, 89.999997496604919, 44.0, 13.0 ],
					"saved_attribute_attributes" : 					{
						"valueof" : 						{
							"parameter_initial" : [ 50 ],
							"parameter_initial_enable" : 1,
							"parameter_linknames" : 1,
							"parameter_longname" : "Amp.Sustain",
							"parameter_mmax" : 100.0,
							"parameter_shortname" : "Amp.Sustain",
							"parameter_type" : 0,
							"parameter_unitstyle" : 5
						}

					}
,
					"varname" : "Amp.Sustain"
				}

			}
, 			{
				"box" : 				{
					"appearance" : 2,
					"id" : "obj-35",
					"maxclass" : "live.numbox",
					"numinlets" : 1,
					"numoutlets" : 2,
					"outlettype" : [ "", "float" ],
					"parameter_enable" : 1,
					"patching_rect" : [ 414.111101773050109, 203.999997496604919, 44.0, 13.0 ],
					"presentation" : 1,
					"presentation_rect" : [ 239.111101773050109, 89.999997496604919, 44.0, 13.0 ],
					"saved_attribute_attributes" : 					{
						"valueof" : 						{
							"parameter_initial" : [ 100 ],
							"parameter_initial_enable" : 1,
							"parameter_linknames" : 1,
							"parameter_longname" : "Amp.Peak",
							"parameter_mmax" : 100.0,
							"parameter_shortname" : "Amp.Peak",
							"parameter_type" : 0,
							"parameter_unitstyle" : 5
						}

					}
,
					"varname" : "Amp.Peak"
				}

			}
, 			{
				"box" : 				{
					"appearance" : 2,
					"id" : "obj-13",
					"maxclass" : "live.numbox",
					"numinlets" : 1,
					"numoutlets" : 2,
					"outlettype" : [ "", "float" ],
					"parameter_enable" : 1,
					"patching_rect" : [ 366.222212884161195, 203.999997496604919, 44.0, 13.0 ],
					"presentation" : 1,
					"presentation_rect" : [ 191.222212884161195, 89.999997496604919, 44.0, 13.0 ],
					"saved_attribute_attributes" : 					{
						"valueof" : 						{
							"parameter_initial" : [ 0 ],
							"parameter_initial_enable" : 1,
							"parameter_linknames" : 1,
							"parameter_longname" : "Amp.Initial",
							"parameter_mmax" : 100.0,
							"parameter_shortname" : "Amp.Initial",
							"parameter_type" : 0,
							"parameter_unitstyle" : 5
						}

					}
,
					"varname" : "Amp.Initial"
				}

			}
, 			{
				"box" : 				{
					"id" : "obj-16",
					"maxclass" : "message",
					"numinlets" : 2,
					"numoutlets" : 1,
					"outlettype" : [ "" ],
					"patching_rect" : [ 939.9166659116745, 47.0, 29.5, 22.0 ],
					"text" : "1."
				}

			}
, 			{
				"box" : 				{
					"id" : "obj-11",
					"maxclass" : "message",
					"numinlets" : 2,
					"numoutlets" : 1,
					"outlettype" : [ "" ],
					"patching_rect" : [ 903.9166659116745, 47.0, 29.5, 22.0 ],
					"text" : "0."
				}

			}
, 			{
				"box" : 				{
					"id" : "obj-4",
					"maxclass" : "newobj",
					"numinlets" : 2,
					"numoutlets" : 2,
					"outlettype" : [ "bang", "" ],
					"patching_rect" : [ 903.9166659116745, 20.0, 55.0, 22.0 ],
					"text" : "sel 0"
				}

			}
, 			{
				"box" : 				{
					"id" : "obj-15",
					"maxclass" : "newobj",
					"numinlets" : 1,
					"numoutlets" : 1,
					"outlettype" : [ "signal" ],
					"patching_rect" : [ 1225.0, 152.0, 31.0, 22.0 ],
					"text" : "sig~"
				}

			}
, 			{
				"box" : 				{
					"id" : "obj-10",
					"maxclass" : "newobj",
					"numinlets" : 1,
					"numoutlets" : 1,
					"outlettype" : [ "signal" ],
					"patching_rect" : [ 694.914818768589612, 119.0, 31.0, 22.0 ],
					"text" : "sig~"
				}

			}
, 			{
				"box" : 				{
					"id" : "obj-9",
					"maxclass" : "newobj",
					"numinlets" : 1,
					"numoutlets" : 1,
					"outlettype" : [ "signal" ],
					"patching_rect" : [ 147.0, 107.0, 31.0, 22.0 ],
					"text" : "sig~"
				}

			}
, 			{
				"box" : 				{
					"id" : "obj-6",
					"maxclass" : "newobj",
					"numinlets" : 2,
					"numoutlets" : 1,
					"outlettype" : [ "float" ],
					"patching_rect" : [ 147.0, 69.0, 39.0, 22.0 ],
					"text" : "/ 127."
				}

			}
, 			{
				"box" : 				{
					"comment" : "",
					"id" : "obj-3",
					"index" : 2,
					"maxclass" : "inlet",
					"numinlets" : 0,
					"numoutlets" : 1,
					"outlettype" : [ "" ],
					"patching_rect" : [ 147.0, 17.0, 30.0, 30.0 ]
				}

			}
, 			{
				"box" : 				{
					"id" : "obj-70",
					"maxclass" : "newobj",
					"numinlets" : 1,
					"numoutlets" : 2,
					"outlettype" : [ "", "" ],
					"patching_rect" : [ 15.0, 63.0, 67.0, 22.0 ],
					"save" : [ "#N", "thispatcher", ";", "#Q", "end", ";" ],
					"text" : "thispatcher"
				}

			}
, 			{
				"box" : 				{
					"comment" : "",
					"id" : "obj-55",
					"index" : 3,
					"maxclass" : "outlet",
					"numinlets" : 1,
					"numoutlets" : 0,
					"patching_rect" : [ 1225.0, 692.0, 30.0, 30.0 ]
				}

			}
, 			{
				"box" : 				{
					"fontsize" : 13.0,
					"id" : "obj-68",
					"maxclass" : "newobj",
					"numinlets" : 11,
					"numoutlets" : 3,
					"outlettype" : [ "signal", "signal", "" ],
					"patching_rect" : [ 1225.0, 299.0, 315.0, 23.0 ],
					"text" : "live.adsr~"
				}

			}
, 			{
				"box" : 				{
					"comment" : "",
					"id" : "obj-41",
					"index" : 2,
					"maxclass" : "outlet",
					"numinlets" : 1,
					"numoutlets" : 0,
					"patching_rect" : [ 695.0, 678.0, 30.0, 30.0 ]
				}

			}
, 			{
				"box" : 				{
					"fontsize" : 13.0,
					"id" : "obj-54",
					"maxclass" : "newobj",
					"numinlets" : 11,
					"numoutlets" : 3,
					"outlettype" : [ "signal", "signal", "" ],
					"patching_rect" : [ 694.914818768589612, 292.0, 237.0, 23.0 ],
					"text" : "live.adsr~"
				}

			}
, 			{
				"box" : 				{
					"comment" : "",
					"id" : "obj-7",
					"index" : 1,
					"maxclass" : "outlet",
					"numinlets" : 1,
					"numoutlets" : 0,
					"patching_rect" : [ 147.0, 581.0, 30.0, 30.0 ]
				}

			}
, 			{
				"box" : 				{
					"comment" : "",
					"id" : "obj-5",
					"index" : 1,
					"maxclass" : "inlet",
					"numinlets" : 0,
					"numoutlets" : 1,
					"outlettype" : [ "" ],
					"patching_rect" : [ 15.0, 17.0, 30.0, 30.0 ]
				}

			}
, 			{
				"box" : 				{
					"fontsize" : 13.0,
					"id" : "obj-21",
					"maxclass" : "newobj",
					"numinlets" : 11,
					"numoutlets" : 3,
					"outlettype" : [ "signal", "signal", "" ],
					"patching_rect" : [ 150.0, 269.0, 164.433342671394371, 23.0 ],
					"text" : "live.adsr~"
				}

			}
 ],
		"lines" : [ 			{
				"patchline" : 				{
					"destination" : [ "obj-54", 0 ],
					"source" : [ "obj-10", 0 ]
				}

			}
, 			{
				"patchline" : 				{
					"destination" : [ "obj-114", 9 ],
					"hidden" : 1,
					"order" : 0,
					"source" : [ "obj-103", 0 ]
				}

			}
, 			{
				"patchline" : 				{
					"destination" : [ "obj-54", 10 ],
					"order" : 1,
					"source" : [ "obj-103", 0 ]
				}

			}
, 			{
				"patchline" : 				{
					"destination" : [ "obj-114", 8 ],
					"hidden" : 1,
					"order" : 0,
					"source" : [ "obj-104", 0 ]
				}

			}
, 			{
				"patchline" : 				{
					"destination" : [ "obj-54", 9 ],
					"order" : 1,
					"source" : [ "obj-104", 0 ]
				}

			}
, 			{
				"patchline" : 				{
					"destination" : [ "obj-114", 7 ],
					"hidden" : 1,
					"order" : 0,
					"source" : [ "obj-105", 0 ]
				}

			}
, 			{
				"patchline" : 				{
					"destination" : [ "obj-54", 8 ],
					"order" : 1,
					"source" : [ "obj-105", 0 ]
				}

			}
, 			{
				"patchline" : 				{
					"destination" : [ "obj-10", 0 ],
					"midpoints" : [ 913.4166659116745, 85.0, 704.414818768589612, 85.0 ],
					"order" : 1,
					"source" : [ "obj-11", 0 ]
				}

			}
, 			{
				"patchline" : 				{
					"destination" : [ "obj-15", 0 ],
					"midpoints" : [ 913.4166659116745, 84.0, 1234.5, 84.0 ],
					"order" : 0,
					"source" : [ "obj-11", 0 ]
				}

			}
, 			{
				"patchline" : 				{
					"destination" : [ "obj-114", 6 ],
					"hidden" : 1,
					"order" : 0,
					"source" : [ "obj-110", 0 ]
				}

			}
, 			{
				"patchline" : 				{
					"destination" : [ "obj-54", 7 ],
					"order" : 1,
					"source" : [ "obj-110", 0 ]
				}

			}
, 			{
				"patchline" : 				{
					"destination" : [ "obj-114", 5 ],
					"hidden" : 1,
					"order" : 0,
					"source" : [ "obj-111", 0 ]
				}

			}
, 			{
				"patchline" : 				{
					"destination" : [ "obj-54", 6 ],
					"order" : 1,
					"source" : [ "obj-111", 0 ]
				}

			}
, 			{
				"patchline" : 				{
					"destination" : [ "obj-114", 4 ],
					"hidden" : 1,
					"order" : 0,
					"source" : [ "obj-112", 0 ]
				}

			}
, 			{
				"patchline" : 				{
					"destination" : [ "obj-54", 5 ],
					"order" : 1,
					"source" : [ "obj-112", 0 ]
				}

			}
, 			{
				"patchline" : 				{
					"destination" : [ "obj-114", 2 ],
					"hidden" : 1,
					"order" : 0,
					"source" : [ "obj-113", 0 ]
				}

			}
, 			{
				"patchline" : 				{
					"destination" : [ "obj-54", 3 ],
					"order" : 1,
					"source" : [ "obj-113", 0 ]
				}

			}
, 			{
				"patchline" : 				{
					"destination" : [ "obj-118", 0 ],
					"midpoints" : [ 882.833332578341128, 623.0, 682.0, 623.0, 682.0, 165.0, 882.833323995272167, 165.0 ],
					"source" : [ "obj-114", 3 ]
				}

			}
, 			{
				"patchline" : 				{
					"destination" : [ "obj-119", 0 ],
					"midpoints" : [ 787.055554800563414, 622.0, 675.0, 622.0, 683.0, 167.0, 786.499999284744263, 167.0 ],
					"source" : [ "obj-114", 1 ]
				}

			}
, 			{
				"patchline" : 				{
					"destination" : [ "obj-120", 0 ],
					"midpoints" : [ 739.1666659116745, 623.0, 670.0, 623.0, 677.0, 164.0, 739.1666659116745, 164.0 ],
					"source" : [ "obj-114", 0 ]
				}

			}
, 			{
				"patchline" : 				{
					"destination" : [ "obj-25", 0 ],
					"source" : [ "obj-114", 9 ]
				}

			}
, 			{
				"patchline" : 				{
					"destination" : [ "obj-34", 0 ],
					"source" : [ "obj-114", 8 ]
				}

			}
, 			{
				"patchline" : 				{
					"destination" : [ "obj-36", 0 ],
					"source" : [ "obj-114", 7 ]
				}

			}
, 			{
				"patchline" : 				{
					"destination" : [ "obj-37", 0 ],
					"source" : [ "obj-114", 6 ]
				}

			}
, 			{
				"patchline" : 				{
					"destination" : [ "obj-39", 0 ],
					"source" : [ "obj-114", 2 ]
				}

			}
, 			{
				"patchline" : 				{
					"destination" : [ "obj-40", 0 ],
					"source" : [ "obj-114", 5 ]
				}

			}
, 			{
				"patchline" : 				{
					"destination" : [ "obj-42", 0 ],
					"source" : [ "obj-114", 4 ]
				}

			}
, 			{
				"patchline" : 				{
					"destination" : [ "obj-103", 0 ],
					"hidden" : 1,
					"source" : [ "obj-115", 0 ]
				}

			}
, 			{
				"patchline" : 				{
					"destination" : [ "obj-104", 0 ],
					"hidden" : 1,
					"source" : [ "obj-116", 0 ]
				}

			}
, 			{
				"patchline" : 				{
					"destination" : [ "obj-105", 0 ],
					"hidden" : 1,
					"source" : [ "obj-117", 0 ]
				}

			}
, 			{
				"patchline" : 				{
					"destination" : [ "obj-114", 3 ],
					"hidden" : 1,
					"order" : 0,
					"source" : [ "obj-118", 0 ]
				}

			}
, 			{
				"patchline" : 				{
					"destination" : [ "obj-54", 4 ],
					"order" : 1,
					"source" : [ "obj-118", 0 ]
				}

			}
, 			{
				"patchline" : 				{
					"destination" : [ "obj-114", 1 ],
					"hidden" : 1,
					"order" : 0,
					"source" : [ "obj-119", 0 ]
				}

			}
, 			{
				"patchline" : 				{
					"destination" : [ "obj-54", 2 ],
					"order" : 1,
					"source" : [ "obj-119", 0 ]
				}

			}
, 			{
				"patchline" : 				{
					"destination" : [ "obj-19", 0 ],
					"hidden" : 1,
					"order" : 0,
					"source" : [ "obj-12", 0 ]
				}

			}
, 			{
				"patchline" : 				{
					"destination" : [ "obj-21", 1 ],
					"order" : 1,
					"source" : [ "obj-12", 0 ]
				}

			}
, 			{
				"patchline" : 				{
					"destination" : [ "obj-114", 0 ],
					"hidden" : 1,
					"order" : 0,
					"source" : [ "obj-120", 0 ]
				}

			}
, 			{
				"patchline" : 				{
					"destination" : [ "obj-54", 1 ],
					"order" : 1,
					"source" : [ "obj-120", 0 ]
				}

			}
, 			{
				"patchline" : 				{
					"destination" : [ "obj-110", 0 ],
					"hidden" : 1,
					"source" : [ "obj-121", 0 ]
				}

			}
, 			{
				"patchline" : 				{
					"destination" : [ "obj-113", 0 ],
					"hidden" : 1,
					"source" : [ "obj-122", 0 ]
				}

			}
, 			{
				"patchline" : 				{
					"destination" : [ "obj-111", 0 ],
					"hidden" : 1,
					"source" : [ "obj-123", 0 ]
				}

			}
, 			{
				"patchline" : 				{
					"destination" : [ "obj-112", 0 ],
					"hidden" : 1,
					"source" : [ "obj-124", 0 ]
				}

			}
, 			{
				"patchline" : 				{
					"destination" : [ "obj-71", 0 ],
					"hidden" : 1,
					"source" : [ "obj-13", 0 ]
				}

			}
, 			{
				"patchline" : 				{
					"destination" : [ "obj-28", 0 ],
					"midpoints" : [ 567.5, 509.0, 53.0, 531.0, 43.0, 142.0, 567.277768439716738, 120.0 ],
					"source" : [ "obj-14", 0 ]
				}

			}
, 			{
				"patchline" : 				{
					"destination" : [ "obj-68", 0 ],
					"source" : [ "obj-15", 0 ]
				}

			}
, 			{
				"patchline" : 				{
					"destination" : [ "obj-164", 9 ],
					"hidden" : 1,
					"order" : 0,
					"source" : [ "obj-152", 0 ]
				}

			}
, 			{
				"patchline" : 				{
					"destination" : [ "obj-68", 10 ],
					"order" : 1,
					"source" : [ "obj-152", 0 ]
				}

			}
, 			{
				"patchline" : 				{
					"destination" : [ "obj-164", 8 ],
					"hidden" : 1,
					"order" : 0,
					"source" : [ "obj-153", 0 ]
				}

			}
, 			{
				"patchline" : 				{
					"destination" : [ "obj-68", 9 ],
					"order" : 1,
					"source" : [ "obj-153", 0 ]
				}

			}
, 			{
				"patchline" : 				{
					"destination" : [ "obj-19", 2 ],
					"hidden" : 1,
					"order" : 0,
					"source" : [ "obj-154", 0 ]
				}

			}
, 			{
				"patchline" : 				{
					"destination" : [ "obj-21", 3 ],
					"order" : 1,
					"source" : [ "obj-154", 0 ]
				}

			}
, 			{
				"patchline" : 				{
					"destination" : [ "obj-164", 7 ],
					"hidden" : 1,
					"order" : 0,
					"source" : [ "obj-155", 0 ]
				}

			}
, 			{
				"patchline" : 				{
					"destination" : [ "obj-68", 8 ],
					"order" : 1,
					"source" : [ "obj-155", 0 ]
				}

			}
, 			{
				"patchline" : 				{
					"destination" : [ "obj-10", 0 ],
					"midpoints" : [ 949.4166659116745, 95.0, 704.414818768589612, 95.0 ],
					"order" : 1,
					"source" : [ "obj-16", 0 ]
				}

			}
, 			{
				"patchline" : 				{
					"destination" : [ "obj-15", 0 ],
					"midpoints" : [ 949.4166659116745, 95.0, 1234.5, 95.0 ],
					"order" : 0,
					"source" : [ "obj-16", 0 ]
				}

			}
, 			{
				"patchline" : 				{
					"destination" : [ "obj-164", 6 ],
					"hidden" : 1,
					"order" : 0,
					"source" : [ "obj-160", 0 ]
				}

			}
, 			{
				"patchline" : 				{
					"destination" : [ "obj-68", 7 ],
					"order" : 1,
					"source" : [ "obj-160", 0 ]
				}

			}
, 			{
				"patchline" : 				{
					"destination" : [ "obj-164", 5 ],
					"hidden" : 1,
					"order" : 0,
					"source" : [ "obj-161", 0 ]
				}

			}
, 			{
				"patchline" : 				{
					"destination" : [ "obj-68", 6 ],
					"order" : 1,
					"source" : [ "obj-161", 0 ]
				}

			}
, 			{
				"patchline" : 				{
					"destination" : [ "obj-164", 4 ],
					"hidden" : 1,
					"order" : 0,
					"source" : [ "obj-162", 0 ]
				}

			}
, 			{
				"patchline" : 				{
					"destination" : [ "obj-68", 5 ],
					"order" : 1,
					"source" : [ "obj-162", 0 ]
				}

			}
, 			{
				"patchline" : 				{
					"destination" : [ "obj-164", 2 ],
					"hidden" : 1,
					"order" : 0,
					"source" : [ "obj-163", 0 ]
				}

			}
, 			{
				"patchline" : 				{
					"destination" : [ "obj-68", 3 ],
					"order" : 1,
					"source" : [ "obj-163", 0 ]
				}

			}
, 			{
				"patchline" : 				{
					"destination" : [ "obj-168", 0 ],
					"midpoints" : [ 1404.166666666666742, 625.0, 1224.0, 625.0, 1224.0, 193.0, 1404.5, 193.0 ],
					"source" : [ "obj-164", 3 ]
				}

			}
, 			{
				"patchline" : 				{
					"destination" : [ "obj-169", 0 ],
					"midpoints" : [ 1308.388888888888914, 612.0, 1226.0, 612.0, 1226.0, 206.0, 1307.5, 206.0 ],
					"source" : [ "obj-164", 1 ]
				}

			}
, 			{
				"patchline" : 				{
					"destination" : [ "obj-170", 0 ],
					"midpoints" : [ 1260.5, 618.0, 1223.0, 618.0, 1223.0, 204.0, 1260.5, 204.0 ],
					"source" : [ "obj-164", 0 ]
				}

			}
, 			{
				"patchline" : 				{
					"destination" : [ "obj-43", 0 ],
					"source" : [ "obj-164", 9 ]
				}

			}
, 			{
				"patchline" : 				{
					"destination" : [ "obj-44", 0 ],
					"source" : [ "obj-164", 8 ]
				}

			}
, 			{
				"patchline" : 				{
					"destination" : [ "obj-45", 0 ],
					"source" : [ "obj-164", 7 ]
				}

			}
, 			{
				"patchline" : 				{
					"destination" : [ "obj-46", 0 ],
					"source" : [ "obj-164", 6 ]
				}

			}
, 			{
				"patchline" : 				{
					"destination" : [ "obj-47", 0 ],
					"source" : [ "obj-164", 2 ]
				}

			}
, 			{
				"patchline" : 				{
					"destination" : [ "obj-48", 0 ],
					"source" : [ "obj-164", 5 ]
				}

			}
, 			{
				"patchline" : 				{
					"destination" : [ "obj-49", 0 ],
					"source" : [ "obj-164", 4 ]
				}

			}
, 			{
				"patchline" : 				{
					"destination" : [ "obj-152", 0 ],
					"hidden" : 1,
					"source" : [ "obj-165", 0 ]
				}

			}
, 			{
				"patchline" : 				{
					"destination" : [ "obj-153", 0 ],
					"hidden" : 1,
					"source" : [ "obj-166", 0 ]
				}

			}
, 			{
				"patchline" : 				{
					"destination" : [ "obj-155", 0 ],
					"hidden" : 1,
					"source" : [ "obj-167", 0 ]
				}

			}
, 			{
				"patchline" : 				{
					"destination" : [ "obj-164", 3 ],
					"hidden" : 1,
					"order" : 0,
					"source" : [ "obj-168", 0 ]
				}

			}
, 			{
				"patchline" : 				{
					"destination" : [ "obj-68", 4 ],
					"order" : 1,
					"source" : [ "obj-168", 0 ]
				}

			}
, 			{
				"patchline" : 				{
					"destination" : [ "obj-164", 1 ],
					"hidden" : 1,
					"order" : 0,
					"source" : [ "obj-169", 0 ]
				}

			}
, 			{
				"patchline" : 				{
					"destination" : [ "obj-68", 2 ],
					"order" : 1,
					"source" : [ "obj-169", 0 ]
				}

			}
, 			{
				"patchline" : 				{
					"destination" : [ "obj-26", 0 ],
					"midpoints" : [ 615.5, 520.0, 6.0, 506.0, 27.0, 155.0, 625.0, 117.0 ],
					"source" : [ "obj-17", 0 ]
				}

			}
, 			{
				"patchline" : 				{
					"destination" : [ "obj-164", 0 ],
					"hidden" : 1,
					"order" : 1,
					"source" : [ "obj-170", 0 ]
				}

			}
, 			{
				"patchline" : 				{
					"destination" : [ "obj-68", 1 ],
					"order" : 0,
					"source" : [ "obj-170", 0 ]
				}

			}
, 			{
				"patchline" : 				{
					"destination" : [ "obj-160", 0 ],
					"hidden" : 1,
					"source" : [ "obj-171", 0 ]
				}

			}
, 			{
				"patchline" : 				{
					"destination" : [ "obj-163", 0 ],
					"hidden" : 1,
					"source" : [ "obj-172", 0 ]
				}

			}
, 			{
				"patchline" : 				{
					"destination" : [ "obj-161", 0 ],
					"hidden" : 1,
					"source" : [ "obj-173", 0 ]
				}

			}
, 			{
				"patchline" : 				{
					"destination" : [ "obj-162", 0 ],
					"hidden" : 1,
					"source" : [ "obj-174", 0 ]
				}

			}
, 			{
				"patchline" : 				{
					"destination" : [ "obj-12", 0 ],
					"midpoints" : [ 184.5, 518.0, 70.0, 518.0, 70.0, 168.0, 184.1666659116745, 168.0 ],
					"source" : [ "obj-19", 0 ]
				}

			}
, 			{
				"patchline" : 				{
					"destination" : [ "obj-14", 0 ],
					"source" : [ "obj-19", 8 ]
				}

			}
, 			{
				"patchline" : 				{
					"destination" : [ "obj-17", 0 ],
					"source" : [ "obj-19", 9 ]
				}

			}
, 			{
				"patchline" : 				{
					"destination" : [ "obj-23", 0 ],
					"source" : [ "obj-19", 7 ]
				}

			}
, 			{
				"patchline" : 				{
					"destination" : [ "obj-24", 0 ],
					"midpoints" : [ 328.166666666666629, 524.0, 59.0, 524.0, 68.0, 160.0, 327.833323995272281, 148.0 ],
					"source" : [ "obj-19", 3 ]
				}

			}
, 			{
				"patchline" : 				{
					"destination" : [ "obj-65", 0 ],
					"midpoints" : [ 232.388888888888886, 512.0, 98.0, 512.0, 98.0, 169.0, 231.499999284744263, 169.0 ],
					"source" : [ "obj-19", 1 ]
				}

			}
, 			{
				"patchline" : 				{
					"destination" : [ "obj-95", 0 ],
					"source" : [ "obj-19", 4 ]
				}

			}
, 			{
				"patchline" : 				{
					"destination" : [ "obj-96", 0 ],
					"source" : [ "obj-19", 5 ]
				}

			}
, 			{
				"patchline" : 				{
					"destination" : [ "obj-97", 0 ],
					"source" : [ "obj-19", 2 ]
				}

			}
, 			{
				"patchline" : 				{
					"destination" : [ "obj-98", 0 ],
					"source" : [ "obj-19", 6 ]
				}

			}
, 			{
				"patchline" : 				{
					"destination" : [ "obj-7", 0 ],
					"source" : [ "obj-21", 0 ]
				}

			}
, 			{
				"patchline" : 				{
					"destination" : [ "obj-30", 0 ],
					"midpoints" : [ 519.5, 515.0, 14.0, 515.0, 14.0, 140.0, 534.0, 130.0 ],
					"source" : [ "obj-23", 0 ]
				}

			}
, 			{
				"patchline" : 				{
					"destination" : [ "obj-19", 3 ],
					"hidden" : 1,
					"order" : 0,
					"source" : [ "obj-24", 0 ]
				}

			}
, 			{
				"patchline" : 				{
					"destination" : [ "obj-21", 4 ],
					"order" : 1,
					"source" : [ "obj-24", 0 ]
				}

			}
, 			{
				"patchline" : 				{
					"destination" : [ "obj-115", 0 ],
					"midpoints" : [ 1170.944443689452328, 626.0, 679.0, 620.0, 686.0, 164.0, 1170.166657328605652, 164.0 ],
					"source" : [ "obj-25", 0 ]
				}

			}
, 			{
				"patchline" : 				{
					"destination" : [ "obj-62", 0 ],
					"hidden" : 1,
					"source" : [ "obj-26", 0 ]
				}

			}
, 			{
				"patchline" : 				{
					"destination" : [ "obj-63", 0 ],
					"hidden" : 1,
					"source" : [ "obj-28", 0 ]
				}

			}
, 			{
				"patchline" : 				{
					"destination" : [ "obj-4", 0 ],
					"midpoints" : [ 156.5, 57.0, 913.4166659116745, 57.0 ],
					"order" : 0,
					"source" : [ "obj-3", 0 ]
				}

			}
, 			{
				"patchline" : 				{
					"destination" : [ "obj-6", 0 ],
					"order" : 1,
					"source" : [ "obj-3", 0 ]
				}

			}
, 			{
				"patchline" : 				{
					"destination" : [ "obj-64", 0 ],
					"hidden" : 1,
					"source" : [ "obj-30", 0 ]
				}

			}
, 			{
				"patchline" : 				{
					"destination" : [ "obj-116", 0 ],
					"midpoints" : [ 1122.944443689452328, 623.0, 683.0, 623.0, 683.0, 166.0, 1122.277768439716738, 166.0 ],
					"source" : [ "obj-34", 0 ]
				}

			}
, 			{
				"patchline" : 				{
					"destination" : [ "obj-88", 0 ],
					"hidden" : 1,
					"source" : [ "obj-35", 0 ]
				}

			}
, 			{
				"patchline" : 				{
					"destination" : [ "obj-117", 0 ],
					"midpoints" : [ 1074.944443689452328, 624.0, 685.0, 624.0, 685.0, 168.0, 1074.388879550827824, 168.0 ],
					"source" : [ "obj-36", 0 ]
				}

			}
, 			{
				"patchline" : 				{
					"destination" : [ "obj-121", 0 ],
					"midpoints" : [ 1026.944443689452328, 624.0, 678.0, 624.0, 687.0, 168.0, 1026.499990661938909, 168.0 ],
					"source" : [ "obj-37", 0 ]
				}

			}
, 			{
				"patchline" : 				{
					"destination" : [ "obj-154", 0 ],
					"hidden" : 1,
					"source" : [ "obj-38", 0 ]
				}

			}
, 			{
				"patchline" : 				{
					"destination" : [ "obj-122", 0 ],
					"midpoints" : [ 834.944443689452328, 622.0, 680.0, 622.0, 687.0, 167.0, 834.94443510638348, 167.0 ],
					"source" : [ "obj-39", 0 ]
				}

			}
, 			{
				"patchline" : 				{
					"destination" : [ "obj-11", 0 ],
					"midpoints" : [ 913.4166659116745, 44.0, 913.4166659116745, 44.0 ],
					"source" : [ "obj-4", 0 ]
				}

			}
, 			{
				"patchline" : 				{
					"destination" : [ "obj-16", 0 ],
					"midpoints" : [ 949.4166659116745, 44.0, 949.4166659116745, 44.0 ],
					"source" : [ "obj-4", 1 ]
				}

			}
, 			{
				"patchline" : 				{
					"destination" : [ "obj-123", 0 ],
					"midpoints" : [ 978.944443689452328, 624.0, 681.0, 624.0, 681.0, 169.0, 987.0, 162.0 ],
					"source" : [ "obj-40", 0 ]
				}

			}
, 			{
				"patchline" : 				{
					"destination" : [ "obj-124", 0 ],
					"midpoints" : [ 930.944443689452328, 624.0, 674.0, 624.0, 684.0, 170.0, 930.722212884161308, 162.0 ],
					"source" : [ "obj-42", 0 ]
				}

			}
, 			{
				"patchline" : 				{
					"destination" : [ "obj-165", 0 ],
					"midpoints" : [ 1692.444443689452328, 629.0, 1219.0, 629.0, 1219.0, 192.0, 1691.5, 192.0 ],
					"source" : [ "obj-43", 0 ]
				}

			}
, 			{
				"patchline" : 				{
					"destination" : [ "obj-166", 0 ],
					"midpoints" : [ 1644.444443689452328, 624.0, 1217.0, 624.0, 1224.0, 192.0, 1643.5, 192.0 ],
					"source" : [ "obj-44", 0 ]
				}

			}
, 			{
				"patchline" : 				{
					"destination" : [ "obj-167", 0 ],
					"midpoints" : [ 1596.444443689452328, 621.0, 1216.0, 621.0, 1226.0, 195.0, 1595.5, 195.0 ],
					"source" : [ "obj-45", 0 ]
				}

			}
, 			{
				"patchline" : 				{
					"destination" : [ "obj-171", 0 ],
					"midpoints" : [ 1548.444443689452328, 621.0, 1225.0, 621.0, 1225.0, 193.0, 1547.5, 193.0 ],
					"source" : [ "obj-46", 0 ]
				}

			}
, 			{
				"patchline" : 				{
					"destination" : [ "obj-172", 0 ],
					"midpoints" : [ 1356.444443689452328, 621.0, 1221.0, 621.0, 1221.0, 198.0, 1356.5, 198.0 ],
					"source" : [ "obj-47", 0 ]
				}

			}
, 			{
				"patchline" : 				{
					"destination" : [ "obj-173", 0 ],
					"midpoints" : [ 1500.444443689452328, 621.0, 1220.0, 621.0, 1220.0, 194.0, 1500.5, 194.0 ],
					"source" : [ "obj-48", 0 ]
				}

			}
, 			{
				"patchline" : 				{
					"destination" : [ "obj-174", 0 ],
					"midpoints" : [ 1452.444443689452328, 624.0, 1219.0, 624.0, 1225.0, 191.0, 1452.5, 191.0 ],
					"source" : [ "obj-49", 0 ]
				}

			}
, 			{
				"patchline" : 				{
					"destination" : [ "obj-70", 0 ],
					"source" : [ "obj-5", 0 ]
				}

			}
, 			{
				"patchline" : 				{
					"destination" : [ "obj-41", 0 ],
					"source" : [ "obj-54", 0 ]
				}

			}
, 			{
				"patchline" : 				{
					"destination" : [ "obj-9", 0 ],
					"source" : [ "obj-6", 0 ]
				}

			}
, 			{
				"patchline" : 				{
					"destination" : [ "obj-19", 9 ],
					"hidden" : 1,
					"order" : 0,
					"source" : [ "obj-62", 0 ]
				}

			}
, 			{
				"patchline" : 				{
					"destination" : [ "obj-21", 10 ],
					"order" : 1,
					"source" : [ "obj-62", 0 ]
				}

			}
, 			{
				"patchline" : 				{
					"destination" : [ "obj-19", 8 ],
					"hidden" : 1,
					"order" : 0,
					"source" : [ "obj-63", 0 ]
				}

			}
, 			{
				"patchline" : 				{
					"destination" : [ "obj-21", 9 ],
					"order" : 1,
					"source" : [ "obj-63", 0 ]
				}

			}
, 			{
				"patchline" : 				{
					"destination" : [ "obj-19", 7 ],
					"hidden" : 1,
					"order" : 0,
					"source" : [ "obj-64", 0 ]
				}

			}
, 			{
				"patchline" : 				{
					"destination" : [ "obj-21", 8 ],
					"order" : 1,
					"source" : [ "obj-64", 0 ]
				}

			}
, 			{
				"patchline" : 				{
					"destination" : [ "obj-19", 1 ],
					"hidden" : 1,
					"order" : 0,
					"source" : [ "obj-65", 0 ]
				}

			}
, 			{
				"patchline" : 				{
					"destination" : [ "obj-21", 2 ],
					"order" : 1,
					"source" : [ "obj-65", 0 ]
				}

			}
, 			{
				"patchline" : 				{
					"destination" : [ "obj-91", 0 ],
					"hidden" : 1,
					"source" : [ "obj-66", 0 ]
				}

			}
, 			{
				"patchline" : 				{
					"destination" : [ "obj-55", 0 ],
					"source" : [ "obj-68", 0 ]
				}

			}
, 			{
				"patchline" : 				{
					"destination" : [ "obj-19", 4 ],
					"hidden" : 1,
					"order" : 0,
					"source" : [ "obj-71", 0 ]
				}

			}
, 			{
				"patchline" : 				{
					"destination" : [ "obj-21", 5 ],
					"order" : 1,
					"source" : [ "obj-71", 0 ]
				}

			}
, 			{
				"patchline" : 				{
					"destination" : [ "obj-19", 5 ],
					"hidden" : 1,
					"order" : 0,
					"source" : [ "obj-88", 0 ]
				}

			}
, 			{
				"patchline" : 				{
					"destination" : [ "obj-21", 6 ],
					"order" : 1,
					"source" : [ "obj-88", 0 ]
				}

			}
, 			{
				"patchline" : 				{
					"destination" : [ "obj-21", 0 ],
					"source" : [ "obj-9", 0 ]
				}

			}
, 			{
				"patchline" : 				{
					"destination" : [ "obj-19", 6 ],
					"hidden" : 1,
					"order" : 0,
					"source" : [ "obj-91", 0 ]
				}

			}
, 			{
				"patchline" : 				{
					"destination" : [ "obj-21", 7 ],
					"order" : 1,
					"source" : [ "obj-91", 0 ]
				}

			}
, 			{
				"patchline" : 				{
					"destination" : [ "obj-13", 0 ],
					"midpoints" : [ 375.5, 520.0, 30.0, 520.0, 36.0, 151.0, 375.722212884161195, 151.0 ],
					"source" : [ "obj-95", 0 ]
				}

			}
, 			{
				"patchline" : 				{
					"destination" : [ "obj-35", 0 ],
					"midpoints" : [ 423.5, 521.0, 21.0, 521.0, 21.0, 158.0, 423.611101773050109, 158.0 ],
					"source" : [ "obj-96", 0 ]
				}

			}
, 			{
				"patchline" : 				{
					"destination" : [ "obj-38", 0 ],
					"midpoints" : [ 279.5, 523.0, 87.0, 523.0, 87.0, 168.0, 279.944435106383423, 168.0 ],
					"source" : [ "obj-97", 0 ]
				}

			}
, 			{
				"patchline" : 				{
					"destination" : [ "obj-66", 0 ],
					"midpoints" : [ 471.5, 519.0, 47.0, 512.0, 58.0, 171.0, 498.0, 150.0 ],
					"source" : [ "obj-98", 0 ]
				}

			}
 ]
	}

}
